<svg width="1200" height="630" viewBox="0 0 1200 630" xmlns="http://www.w3.org/2000/svg">
  <defs>
    <linearGradient id="bgGrad" x1="0%" y1="0%" x2="100%" y2="100%">
      <stop offset="0%" stop-color="#22C55E"/>
      <stop offset="50%" stop-color="#15803D"/>
      <stop offset="100%" stop-color="#16A34A"/>
    </linearGradient>
    <radialGradient id="blob1Grad" cx="50%" cy="50%" r="50%">
      <stop offset="0%" stop-color="#86EFAC" stop-opacity="0.4"/>
      <stop offset="100%" stop-color="#86EFAC" stop-opacity="0"/>
    </radialGradient>
    <radialGradient id="blob2Grad" cx="50%" cy="50%" r="50%">
      <stop offset="0%" stop-color="#4ADE80" stop-opacity="0.35"/>
      <stop offset="100%" stop-color="#4ADE80" stop-opacity="0"/>
    </radialGradient>
    <radialGradient id="blob3Grad" cx="50%" cy="50%" r="50%">
      <stop offset="0%" stop-color="#16A34A" stop-opacity="0.3"/>
      <stop offset="100%" stop-color="#16A34A" stop-opacity="0"/>
    </radialGradient>
    <filter id="glassBlur" x="-10%" y="-10%" width="120%" height="120%">
      <feGaussianBlur in="SourceGraphic" stdDeviation="2"/>
    </filter>
    <filter id="cardShadow" x="-5%" y="-5%" width="110%" height="115%">
      <feDropShadow dx="0" dy="8" stdDeviation="20" flood-color="#000000" flood-opacity="0.25"/>
    </filter>
    <linearGradient id="glassGrad" x1="0%" y1="0%" x2="0%" y2="100%">
      <stop offset="0%" stop-color="#ffffff" stop-opacity="0.18"/>
      <stop offset="100%" stop-color="#ffffff" stop-opacity="0.08"/>
    </linearGradient>
    <linearGradient id="badgeGrad" x1="0%" y1="0%" x2="100%" y2="0%">
      <stop offset="0%" stop-color="#ffffff" stop-opacity="0.25"/>
      <stop offset="100%" stop-color="#ffffff" stop-opacity="0.12"/>
    </linearGradient>
    <clipPath id="cardClip">
      <rect x="100" y="80" width="1000" height="470" rx="24"/>
    </clipPath>
  </defs>

  <rect width="1200" height="630" fill="url(#bgGrad)"/>

  <circle cx="150" cy="100" r="220" fill="url(#blob1Grad)"/>
  <circle cx="1050" cy="520" r="260" fill="url(#blob2Grad)"/>
  <circle cx="900" cy="80" r="180" fill="url(#blob3Grad)"/>

  <g opacity="0.06">
    <line x1="0" y1="210" x2="1200" y2="210" stroke="#ffffff" stroke-width="0.5"/>
    <line x1="0" y1="420" x2="1200" y2="420" stroke="#ffffff" stroke-width="0.5"/>
    <line x1="400" y1="0" x2="400" y2="630" stroke="#ffffff" stroke-width="0.5"/>
    <line x1="800" y1="0" x2="800" y2="630" stroke="#ffffff" stroke-width="0.5"/>
  </g>

  <g filter="url(#cardShadow)">
    <rect x="100" y="80" width="1000" height="470" rx="24" fill="url(#glassGrad)"/>
    <rect x="100" y="80" width="1000" height="470" rx="24" fill="none" stroke="rgba(255,255,255,0.2)" stroke-width="1"/>
  </g>

  <g clip-path="url(#cardClip)">
    <ellipse cx="100" cy="80" rx="300" ry="200" fill="#ffffff" opacity="0.04"/>

    <rect x="535" y="110" width="130" height="36" rx="18" fill="url(#badgeGrad)"/>
    <rect x="535" y="110" width="130" height="36" rx="18" fill="none" stroke="rgba(255,255,255,0.2)" stroke-width="0.8"/>
    <g transform="translate(557, 128) scale(0.9)">
      <ellipse cx="0" cy="-6" rx="8" ry="4" fill="none" stroke="white" stroke-width="1.5"/><path d="M-8-6V6" fill="none" stroke="white" stroke-width="1.5"/><path d="M8-6V6" fill="none" stroke="white" stroke-width="1.5"/><ellipse cx="0" cy="6" rx="8" ry="4" fill="none" stroke="white" stroke-width="1.5"/>
    </g>
    <text x="575" y="134" font-family="'Pretendard', 'Apple SD Gothic Neo', sans-serif" font-size="18" font-weight="700" fill="#ffffff">Database</text>

    <text x="600" y="311" font-family="'Pretendard', 'Apple SD Gothic Neo', sans-serif" font-size="48" font-weight="800" fill="#FFFFFF" text-anchor="middle" letter-spacing="-0.5">NoSQL과 분산 데이터베이스 — CAP,</text>
    <text x="600" y="367" font-family="'Pretendard', 'Apple SD Gothic Neo', sans-serif" font-size="48" font-weight="800" fill="#FFFFFF" text-anchor="middle" letter-spacing="-0.5">BASE, 샤딩, 레플리케이션 완전 정복</text>

    <line x1="180" y1="480" x2="1020" y2="480" stroke="rgba(255,255,255,0.15)" stroke-width="1"/>

    <text x="200" y="520" font-family="'Pretendard', 'Apple SD Gothic Neo', sans-serif" font-size="20" font-weight="600" fill="rgba(255,255,255,0.7)">HoneyByte</text>
    <text x="1000" y="520" font-family="'Pretendard', 'Apple SD Gothic Neo', sans-serif" font-size="18" font-weight="400" fill="rgba(255,255,255,0.5)" text-anchor="end">2026-04-13</text>
  </g>
</svg>